<svg id="Layer_1" data-name="Layer 1" xmlns="http://www.w3.org/2000/svg" width="300" height="360" viewBox="0 0 300 360"><defs><style>.cls-1{font-size:22px;}.cls-1,.cls-10,.cls-13,.cls-5,.cls-9{font-family:Poppins-SemiBold, Poppins;font-weight:600;}.cls-2,.cls-3{font-size:18px;}.cls-14,.cls-2,.cls-3,.cls-6{font-family:Poppins-Regular, Poppins;}.cls-14,.cls-3,.cls-6{fill:#4d4d4d;}.cls-13,.cls-4,.cls-6{font-size:12px;}.cls-5{font-size:15px;}.cls-7{fill:#6aaa64;}.cls-8{fill:none;stroke:gray;stroke-miterlimit:10;stroke-width:0.97px;}.cls-10,.cls-9{font-size:26px;}.cls-9{fill:#fff;}.cls-11{fill:#c9b458;}.cls-12{fill:#787c7e;}.cls-13{fill:#1a1a1a;}.cls-14{font-weight:400;}</style></defs><text class="cls-1" transform="translate(9.19 28.02)">How To Play</text><text class="cls-2" transform="translate(10.19 54.66)">Guess The Wordle In 6 Tries</text><text class="cls-3" transform="translate(9.57 80.32)">- <tspan class="cls-4" x="14.72" y="0">Each guess must be a valid 5-letter word.</tspan></text><text class="cls-5" transform="translate(10.28 150.92)">Examples</text><text class="cls-6" transform="translate(10.06 102.57)">- The Color of the tiles will chage to show how <tspan x="0" y="18" xml:space="preserve">    close your guess was to the word.</tspan></text><rect class="cls-7" x="10" y="167" width="32.86" height="32.86"/><rect class="cls-8" x="48.17" y="167.48" width="32.86" height="32.86"/><rect class="cls-8" x="86.83" y="167.48" width="32.86" height="32.86"/><rect class="cls-8" x="125.49" y="167.48" width="32.86" height="32.86"/><rect class="cls-8" x="164.14" y="167.48" width="32.86" height="32.86"/><text class="cls-9" transform="translate(16.66 192.64)">C</text><text class="cls-10" transform="translate(58.89 192.98)">L</text><text class="cls-10" transform="translate(93.17 192.89)">O</text><text class="cls-10" transform="translate(173.68 192.94)">K</text><text class="cls-10" transform="translate(132.29 192.28)">C</text><rect class="cls-8" x="10" y="238" width="32.86" height="32.86"/><rect class="cls-8" x="48.17" y="238.48" width="32.86" height="32.86"/><rect class="cls-11" x="86.83" y="238.48" width="32.86" height="32.86"/><rect class="cls-8" x="125.49" y="238.48" width="32.86" height="32.86"/><rect class="cls-8" x="164.14" y="238.48" width="32.86" height="32.86"/><rect class="cls-8" x="10" y="304" width="32.86" height="32.86"/><rect class="cls-8" x="48.17" y="304.48" width="32.86" height="32.86"/><rect class="cls-8" x="86.83" y="304.48" width="32.86" height="32.86"/><rect class="cls-12" x="125.49" y="304.48" width="32.86" height="32.86"/><rect class="cls-8" x="164.14" y="304.48" width="32.86" height="32.86"/><text class="cls-10" transform="translate(133.08 264.28)">A</text><text class="cls-9" transform="translate(96.85 264.11)">E</text><text class="cls-10" transform="translate(58.06 264.19)">R</text><text class="cls-10" transform="translate(171.81 265.36)">S</text><text class="cls-10" transform="translate(16.97 264.28)">A</text><text class="cls-10" transform="translate(18.15 330.98)">V</text><text class="cls-10" transform="translate(55.94 331.28)">A</text><text class="cls-10" transform="translate(93.98 330.68)">G</text><text class="cls-9" transform="translate(133.66 331.06)">U</text><text class="cls-10" transform="translate(174.36 331.28)">E</text><text class="cls-13" transform="translate(9.98 221.25)">C <tspan class="cls-14" x="12.07" y="0">is in the word and in the correct spot.</tspan></text><text class="cls-13" transform="translate(10.22 288.48)">E<tspan class="cls-14" x="6.38" y="0" xml:space="preserve"> is in the word but in the wrong spot.</tspan></text><text class="cls-13" transform="translate(11.17 355.48)">U<tspan class="cls-14" x="8.36" y="0" xml:space="preserve"> is not in the word in any spot.</tspan></text></svg>